<svg width="651" height="187" viewBox="0 0 651 187" fill="none" xmlns="http://www.w3.org/2000/svg">
<rect x="5.97755" y="2.41479" width="643" height="171" rx="23" transform="rotate(0.997717 5.97755 2.41479)" stroke="#FFB86C" stroke-width="5" stroke-linecap="round" stroke-linejoin="round" stroke-dasharray="19 19"/>
<rect x="14.44" y="21" width="623" height="145" rx="23" fill="#FFB86C"/>
<path d="M125.128 106.128C125.128 118.416 121.587 127.632 114.504 133.776C107.507 139.835 97.3093 142.864 83.9119 142.864C70.5999 142.864 60.3599 139.835 53.1919 133.776C46.0239 127.632 42.4399 118.416 42.4399 106.128L42.4399 59.152C42.4399 57.0187 44.8293 55.0987 49.6079 53.392C54.4719 51.6853 60.1039 50.832 66.5039 50.832C71.6239 50.832 74.9519 51.8133 76.4879 53.776C77.5973 55.312 78.1519 56.6347 78.1519 57.744V95.888C78.1519 105.531 78.4933 111.931 79.1759 115.088C79.9439 118.16 81.5226 119.696 83.9119 119.696C86.3013 119.696 87.7946 118.203 88.3919 115.216C89.0746 112.144 89.4159 105.659 89.4159 95.76V59.152C89.4159 57.0187 91.8053 55.0987 96.5839 53.392C101.448 51.6853 107.037 50.832 113.352 50.832C118.728 50.832 122.141 51.8133 123.592 53.776C124.616 55.312 125.128 56.6347 125.128 57.744L125.128 106.128Z" fill="white"/>
<path d="M155.027 141.84C152.894 141.84 149.779 141.84 145.683 141.84C141.672 141.84 138.942 141.541 137.491 140.944C136.04 140.347 135.315 139.408 135.315 138.128V57.36C135.315 55.3973 137.918 53.8613 143.123 52.752C148.414 51.5573 154.046 50.96 160.019 50.96C165.992 50.96 170.259 51.728 172.819 53.264C175.379 54.8 176.872 56.4213 177.299 58.128L186.003 91.92H187.155L195.347 59.664C195.944 57.36 198.718 55.3547 203.667 53.648C208.702 51.856 214.206 50.96 220.179 50.96C226.152 50.96 230.547 51.4293 233.363 52.368C236.264 53.3067 237.715 54.5013 237.715 55.952V138.128C237.715 139.237 235.283 140.133 230.419 140.816C225.555 141.499 219.624 141.84 212.627 141.84C205.63 141.84 202.131 140.603 202.131 138.128C202.131 131.387 202.856 119.397 204.307 102.16H203.155L196.499 135.568C196.243 136.848 195.176 137.787 193.299 138.384C191.507 138.981 188.776 139.28 185.107 139.28C181.438 139.28 179.176 139.024 178.323 138.512C177.555 138 177.043 137.019 176.787 135.568L169.875 102.16H168.723C170.259 119.739 171.027 131.728 171.027 138.128C171.027 140.347 165.694 141.584 155.027 141.84Z" fill="white"/>
<path d="M283.652 137.872C283.652 138.981 281.007 139.877 275.716 140.56C270.511 141.243 265.305 141.584 260.1 141.584C254.895 141.584 251.567 141.285 250.116 140.688C248.665 140.091 247.94 139.152 247.94 137.872V59.408C247.94 57.1893 250.329 55.2267 255.108 53.52C259.972 51.8133 265.561 50.96 271.876 50.96C277.081 50.96 280.452 51.984 281.988 54.032C283.097 55.4827 283.652 56.8053 283.652 58V79.12H284.676C284.676 78.6933 285.956 75.152 288.516 68.496C293.38 55.952 296.921 49.68 299.14 49.68C303.321 49.68 309.209 50.9173 316.804 53.392C320.473 54.5867 323.631 56.336 326.276 58.64C328.921 60.8587 330.244 63.3333 330.244 66.064C330.244 67.7707 328.495 71.0987 324.996 76.048C321.583 80.912 316.377 87.44 309.38 95.632C311.001 97.3387 313.049 99.5147 315.524 102.16C317.999 104.805 321.284 108.773 325.38 114.064C329.561 119.269 331.652 122.981 331.652 125.2C331.652 127.419 329.647 130.021 325.636 133.008C321.625 135.909 317.359 138.299 312.836 140.176C308.313 141.968 304.943 142.864 302.724 142.864C301.273 142.864 299.268 140.688 296.708 136.336C294.233 131.899 291.204 125.285 287.62 116.496L283.652 121.232V137.872Z" fill="white"/>
<path d="M358.402 141.84C356.269 141.84 353.154 141.84 349.058 141.84C345.047 141.84 342.317 141.541 340.866 140.944C339.415 140.347 338.69 139.408 338.69 138.128V57.36C338.69 55.3973 341.293 53.8613 346.498 52.752C351.789 51.5573 357.421 50.96 363.394 50.96C369.367 50.96 373.634 51.728 376.194 53.264C378.754 54.8 380.247 56.4213 380.674 58.128L389.378 91.92H390.53L398.722 59.664C399.319 57.36 402.093 55.3547 407.042 53.648C412.077 51.856 417.581 50.96 423.554 50.96C429.527 50.96 433.922 51.4293 436.738 52.368C439.639 53.3067 441.09 54.5013 441.09 55.952V138.128C441.09 139.237 438.658 140.133 433.794 140.816C428.93 141.499 422.999 141.84 416.002 141.84C409.005 141.84 405.506 140.603 405.506 138.128C405.506 131.387 406.231 119.397 407.682 102.16H406.53L399.874 135.568C399.618 136.848 398.551 137.787 396.674 138.384C394.882 138.981 392.151 139.28 388.482 139.28C384.813 139.28 382.551 139.024 381.698 138.512C380.93 138 380.418 137.019 380.162 135.568L373.25 102.16H372.098C373.634 119.739 374.402 131.728 374.402 138.128C374.402 140.347 369.069 141.584 358.402 141.84Z" fill="white"/>
<path d="M485.235 138.768C485.235 139.707 482.846 140.475 478.067 141.072C473.288 141.584 468.296 141.84 463.091 141.84C457.886 141.84 454.515 141.627 452.979 141.2C451.443 140.688 450.675 139.877 450.675 138.768V50.192C450.675 48.3147 453.064 46.48 457.843 44.688C462.707 42.896 467.912 42 473.459 42C481.31 42 485.235 43.9627 485.235 47.888V95.76H486.899C490.995 76.2187 494.024 66.448 495.987 66.448C500.936 66.448 506.91 67.6 513.907 69.904C520.904 72.208 524.403 74.768 524.403 77.584C524.403 79.632 522.696 83.5573 519.283 89.36C515.87 95.1627 512.328 99.8987 508.659 103.568C520.862 118.16 526.963 126.821 526.963 129.552C526.963 132.112 523.08 135.227 515.315 138.896C507.55 142.565 502.088 144.4 498.931 144.4C497.395 144.4 495.774 142.565 494.067 138.896C492.36 135.141 490.526 129.552 488.563 122.128L485.235 126.096V138.768Z" fill="white"/>
<path d="M557.778 142.992C548.221 142.992 541.522 140.517 537.682 135.568C533.927 130.619 532.05 122 532.05 109.712V74.896C532.05 73.1893 534.567 71.568 539.602 70.032C544.637 68.4107 549.927 67.6 555.474 67.6C562.898 67.6 566.61 69.52 566.61 73.36V105.872C566.61 112.357 566.866 117.093 567.378 120.08C567.89 122.981 569.17 124.432 571.218 124.432C573.949 124.432 575.314 123.28 575.314 120.976V74.896C575.314 73.104 577.959 71.44 583.25 69.904C588.541 68.368 594.301 67.6 600.53 67.6C606.759 67.6 609.874 69.264 609.874 72.592V138.512C609.874 139.707 607.186 140.56 601.81 141.072C596.434 141.584 591.143 141.84 585.938 141.84C580.733 141.84 578.087 141.157 578.002 139.792L576.722 131.472H575.698C574.93 134.544 573.394 137.061 571.09 139.024C569.895 140.048 568.103 140.987 565.714 141.84C563.41 142.608 560.765 142.992 557.778 142.992Z" fill="white"/>
<path d="M125.128 106.128C125.128 118.416 121.587 127.632 114.504 133.776C107.507 139.835 97.3093 142.864 83.9119 142.864C70.5999 142.864 60.3599 139.835 53.1919 133.776C46.0239 127.632 42.4399 118.416 42.4399 106.128L42.4399 59.152C42.4399 57.0187 44.8293 55.0987 49.6079 53.392C54.4719 51.6853 60.1039 50.832 66.5039 50.832C71.6239 50.832 74.9519 51.8133 76.4879 53.776C77.5973 55.312 78.1519 56.6347 78.1519 57.744V95.888C78.1519 105.531 78.4933 111.931 79.1759 115.088C79.9439 118.16 81.5226 119.696 83.9119 119.696C86.3013 119.696 87.7946 118.203 88.3919 115.216C89.0746 112.144 89.4159 105.659 89.4159 95.76V59.152C89.4159 57.0187 91.8053 55.0987 96.5839 53.392C101.448 51.6853 107.037 50.832 113.352 50.832C118.728 50.832 122.141 51.8133 123.592 53.776C124.616 55.312 125.128 56.6347 125.128 57.744L125.128 106.128Z" stroke="#D84C55" stroke-width="5" stroke-linejoin="round"/>
<path d="M155.027 141.84C152.894 141.84 149.779 141.84 145.683 141.84C141.672 141.84 138.942 141.541 137.491 140.944C136.04 140.347 135.315 139.408 135.315 138.128V57.36C135.315 55.3973 137.918 53.8613 143.123 52.752C148.414 51.5573 154.046 50.96 160.019 50.96C165.992 50.96 170.259 51.728 172.819 53.264C175.379 54.8 176.872 56.4213 177.299 58.128L186.003 91.92H187.155L195.347 59.664C195.944 57.36 198.718 55.3547 203.667 53.648C208.702 51.856 214.206 50.96 220.179 50.96C226.152 50.96 230.547 51.4293 233.363 52.368C236.264 53.3067 237.715 54.5013 237.715 55.952V138.128C237.715 139.237 235.283 140.133 230.419 140.816C225.555 141.499 219.624 141.84 212.627 141.84C205.63 141.84 202.131 140.603 202.131 138.128C202.131 131.387 202.856 119.397 204.307 102.16H203.155L196.499 135.568C196.243 136.848 195.176 137.787 193.299 138.384C191.507 138.981 188.776 139.28 185.107 139.28C181.438 139.28 179.176 139.024 178.323 138.512C177.555 138 177.043 137.019 176.787 135.568L169.875 102.16H168.723C170.259 119.739 171.027 131.728 171.027 138.128C171.027 140.347 165.694 141.584 155.027 141.84Z" stroke="#D84C55" stroke-width="5" stroke-linejoin="round"/>
<path d="M283.652 137.872C283.652 138.981 281.007 139.877 275.716 140.56C270.511 141.243 265.305 141.584 260.1 141.584C254.895 141.584 251.567 141.285 250.116 140.688C248.665 140.091 247.94 139.152 247.94 137.872V59.408C247.94 57.1893 250.329 55.2267 255.108 53.52C259.972 51.8133 265.561 50.96 271.876 50.96C277.081 50.96 280.452 51.984 281.988 54.032C283.097 55.4827 283.652 56.8053 283.652 58V79.12H284.676C284.676 78.6933 285.956 75.152 288.516 68.496C293.38 55.952 296.921 49.68 299.14 49.68C303.321 49.68 309.209 50.9173 316.804 53.392C320.473 54.5867 323.631 56.336 326.276 58.64C328.921 60.8587 330.244 63.3333 330.244 66.064C330.244 67.7707 328.495 71.0987 324.996 76.048C321.583 80.912 316.377 87.44 309.38 95.632C311.001 97.3387 313.049 99.5147 315.524 102.16C317.999 104.805 321.284 108.773 325.38 114.064C329.561 119.269 331.652 122.981 331.652 125.2C331.652 127.419 329.647 130.021 325.636 133.008C321.625 135.909 317.359 138.299 312.836 140.176C308.313 141.968 304.943 142.864 302.724 142.864C301.273 142.864 299.268 140.688 296.708 136.336C294.233 131.899 291.204 125.285 287.62 116.496L283.652 121.232V137.872Z" stroke="#D84C55" stroke-width="5" stroke-linejoin="round"/>
<path d="M358.402 141.84C356.269 141.84 353.154 141.84 349.058 141.84C345.047 141.84 342.317 141.541 340.866 140.944C339.415 140.347 338.69 139.408 338.69 138.128V57.36C338.69 55.3973 341.293 53.8613 346.498 52.752C351.789 51.5573 357.421 50.96 363.394 50.96C369.367 50.96 373.634 51.728 376.194 53.264C378.754 54.8 380.247 56.4213 380.674 58.128L389.378 91.92H390.53L398.722 59.664C399.319 57.36 402.093 55.3547 407.042 53.648C412.077 51.856 417.581 50.96 423.554 50.96C429.527 50.96 433.922 51.4293 436.738 52.368C439.639 53.3067 441.09 54.5013 441.09 55.952V138.128C441.09 139.237 438.658 140.133 433.794 140.816C428.93 141.499 422.999 141.84 416.002 141.84C409.005 141.84 405.506 140.603 405.506 138.128C405.506 131.387 406.231 119.397 407.682 102.16H406.53L399.874 135.568C399.618 136.848 398.551 137.787 396.674 138.384C394.882 138.981 392.151 139.28 388.482 139.28C384.813 139.28 382.551 139.024 381.698 138.512C380.93 138 380.418 137.019 380.162 135.568L373.25 102.16H372.098C373.634 119.739 374.402 131.728 374.402 138.128C374.402 140.347 369.069 141.584 358.402 141.84Z" stroke="#D84C55" stroke-width="5" stroke-linejoin="round"/>
<path d="M485.235 138.768C485.235 139.707 482.846 140.475 478.067 141.072C473.288 141.584 468.296 141.84 463.091 141.84C457.886 141.84 454.515 141.627 452.979 141.2C451.443 140.688 450.675 139.877 450.675 138.768V50.192C450.675 48.3147 453.064 46.48 457.843 44.688C462.707 42.896 467.912 42 473.459 42C481.31 42 485.235 43.9627 485.235 47.888V95.76H486.899C490.995 76.2187 494.024 66.448 495.987 66.448C500.936 66.448 506.91 67.6 513.907 69.904C520.904 72.208 524.403 74.768 524.403 77.584C524.403 79.632 522.696 83.5573 519.283 89.36C515.87 95.1627 512.328 99.8987 508.659 103.568C520.862 118.16 526.963 126.821 526.963 129.552C526.963 132.112 523.08 135.227 515.315 138.896C507.55 142.565 502.088 144.4 498.931 144.4C497.395 144.4 495.774 142.565 494.067 138.896C492.36 135.141 490.526 129.552 488.563 122.128L485.235 126.096V138.768Z" stroke="#D84C55" stroke-width="5" stroke-linejoin="round"/>
<path d="M557.778 142.992C548.221 142.992 541.522 140.517 537.682 135.568C533.927 130.619 532.05 122 532.05 109.712V74.896C532.05 73.1893 534.567 71.568 539.602 70.032C544.637 68.4107 549.927 67.6 555.474 67.6C562.898 67.6 566.61 69.52 566.61 73.36V105.872C566.61 112.357 566.866 117.093 567.378 120.08C567.89 122.981 569.17 124.432 571.218 124.432C573.949 124.432 575.314 123.28 575.314 120.976V74.896C575.314 73.104 577.959 71.44 583.25 69.904C588.541 68.368 594.301 67.6 600.53 67.6C606.759 67.6 609.874 69.264 609.874 72.592V138.512C609.874 139.707 607.186 140.56 601.81 141.072C596.434 141.584 591.143 141.84 585.938 141.84C580.733 141.84 578.087 141.157 578.002 139.792L576.722 131.472H575.698C574.93 134.544 573.394 137.061 571.09 139.024C569.895 140.048 568.103 140.987 565.714 141.84C563.41 142.608 560.765 142.992 557.778 142.992Z" stroke="#D84C55" stroke-width="5" stroke-linejoin="round"/>
</svg>
