<svg width="689" height="202" viewBox="0 0 689 202" fill="none" xmlns="http://www.w3.org/2000/svg">
<path fill-rule="evenodd" clip-rule="evenodd" d="M622.984 8.69136C628.039 7.42854 633.385 8.22569 637.846 10.9075C642.308 13.5893 645.52 17.9362 646.776 22.9922L648.741 30.8892L656.636 28.9189C659.156 28.2422 661.784 28.0743 664.368 28.425C666.952 28.7757 669.439 29.6379 671.685 30.9613C673.931 32.2848 675.89 34.043 677.449 36.1333C679.007 38.2236 680.134 40.6042 680.762 43.1362C681.391 45.6682 681.509 48.3008 681.111 50.8805C680.712 53.4602 679.803 55.9352 678.439 58.1613C677.075 60.3873 675.281 62.3198 673.163 63.8458C671.046 65.3719 668.646 66.461 666.105 67.0497L620.088 78.5576L608.661 32.5213C607.406 27.4649 608.21 22.114 610.896 17.6452C613.582 13.1764 617.93 9.9557 622.984 8.69136V8.69136Z" fill="#FFE2D7" stroke="#FFB86C" stroke-width="8" stroke-linecap="round" stroke-linejoin="round"/>
<rect x="5.97755" y="17" width="643" height="171" rx="23" transform="rotate(0.997717 5.97755 17)" stroke="#FFB86C" stroke-width="5" stroke-linecap="round" stroke-linejoin="round" stroke-dasharray="19 19"/>
<rect x="14.44" y="35.5852" width="623" height="145" rx="23" fill="#FFB86C"/>
<path fill-rule="evenodd" clip-rule="evenodd" d="M622.984 8.69136C628.039 7.42854 633.385 8.22569 637.846 10.9075C642.308 13.5893 645.52 17.9362 646.776 22.9922L648.741 30.8892L656.636 28.9189C659.156 28.2422 661.784 28.0743 664.368 28.425C666.952 28.7757 669.439 29.6379 671.685 30.9613C673.931 32.2848 675.89 34.043 677.449 36.1333C679.007 38.2236 680.134 40.6042 680.762 43.1362C681.391 45.6682 681.509 48.3008 681.111 50.8805C680.712 53.4602 679.803 55.9352 678.439 58.1613C677.075 60.3873 675.281 62.3198 673.163 63.8458C671.046 65.3719 668.646 66.461 666.105 67.0497L620.088 78.5576L608.661 32.5213C607.406 27.4649 608.21 22.114 610.896 17.6452C613.582 13.1764 617.93 9.9557 622.984 8.69136V8.69136Z" fill="#FFE2D7"/>
<path d="M114.438 146.576C113.563 148.192 108.984 149 100.702 149C92.4875 149 88.2118 148.192 87.8751 146.576L84.4411 128.194H83.0271L79.7951 146.576C79.5931 148.192 73.7015 149 62.1201 149C58.8881 149 56.7335 148.832 55.6561 148.495C54.6461 148.091 53.9391 147.451 53.5351 146.576C41.0111 115.805 34.7491 99.611 34.7491 97.995C34.7491 96.379 37.1731 94.7293 42.0211 93.046C46.9365 91.2953 51.6498 90.42 56.1611 90.42C61.9518 90.42 64.9481 91.9687 65.1501 95.066L68.5841 122.74H69.7961L71.0081 100.419C71.0755 98.7357 72.7925 97.2543 76.1591 95.975C79.5258 94.6957 82.9261 94.056 86.3601 94.056C89.7941 94.056 92.3528 94.4937 94.0361 95.369C95.7868 96.177 96.6958 97.187 96.7631 98.399L97.8741 122.74H98.9851L102.318 96.783C102.52 95.167 104.776 93.7193 109.085 92.44C113.462 91.0933 117.3 90.42 120.599 90.42C123.898 90.42 126.491 90.8913 128.376 91.834C131.473 93.3153 133.022 95.066 133.022 97.086C133.022 97.288 129.958 105.503 123.831 121.73C117.771 137.957 114.64 146.239 114.438 146.576ZM156.292 149.909C150.165 149.909 145.351 148.461 141.849 145.566C140.435 144.354 139.19 142.57 138.112 140.213C137.102 137.856 136.597 135.096 136.597 131.931C136.597 128.766 137.338 126.006 138.819 123.649C140.368 121.292 142.22 119.474 144.374 118.195C146.529 116.916 149.054 115.872 151.949 115.064C156.326 113.919 161.14 113.347 166.392 113.347H169.725C169.725 110.586 168.783 108.634 166.897 107.489C166.089 107.018 164.844 106.782 163.16 106.782C161.544 106.782 159.558 107.22 157.201 108.095C154.912 108.97 152.993 109.879 151.444 110.822C149.896 111.697 148.852 112.135 148.313 112.135C147.101 112.135 145.452 110.553 143.364 107.388C141.277 104.156 140.233 101.227 140.233 98.601C140.233 97.7257 141.479 96.581 143.97 95.167C146.462 93.753 149.963 92.4737 154.474 91.329C159.053 90.117 163.497 89.511 167.806 89.511C172.116 89.511 175.819 89.8813 178.916 90.622C182.081 91.2953 184.64 92.137 186.592 93.147C188.612 94.157 190.296 95.5037 191.642 97.187C193.056 98.8703 194.1 100.385 194.773 101.732C195.514 103.079 196.053 104.829 196.389 106.984C196.861 109.475 197.096 112.539 197.096 116.175V146.576C197.096 147.317 195.278 147.923 191.642 148.394C188.074 148.798 184.505 149 180.936 149C177.435 149 175.146 148.899 174.068 148.697C173.058 148.495 172.452 148.259 172.25 147.99C172.048 147.721 171.88 147.249 171.745 146.576L170.937 140.819H170.129C168.446 146.879 163.834 149.909 156.292 149.909ZM169.826 133.143V121.326C168.076 121.326 166.662 122.067 165.584 123.548C164.507 125.029 163.968 126.713 163.968 128.598C163.968 133.042 164.978 135.264 166.998 135.264C167.874 135.264 168.547 135.062 169.018 134.658C169.557 134.187 169.826 133.682 169.826 133.143ZM231.948 96.783V146.576C231.948 147.317 229.995 147.923 226.09 148.394C222.252 148.798 218.279 149 214.172 149C210.132 149 207.506 148.832 206.294 148.495C205.149 148.091 204.577 147.451 204.577 146.576V98.601C204.577 97.1197 206.462 95.672 210.233 94.258C214.071 92.7767 218.245 92.036 222.757 92.036C228.884 92.036 231.948 93.6183 231.948 96.783ZM218.212 70.22C222.656 70.22 226.123 70.8933 228.615 72.24C231.173 73.5193 232.453 75.876 232.453 79.31C232.453 85.37 227.739 88.4 218.313 88.4C208.886 88.4 204.173 85.37 204.173 79.31C204.173 73.25 208.852 70.22 218.212 70.22ZM272.106 115.67V146.576C272.106 147.317 270.255 147.923 266.551 148.394C262.848 148.798 258.303 149 252.916 149C247.53 149 244.836 148.192 244.836 146.576V115.67H239.685C237.867 115.67 236.958 112.606 236.958 106.479C236.958 104.055 237.362 101.799 238.17 99.712C239.046 97.5573 240.157 96.48 241.503 96.48H244.836C244.836 91.9687 245.476 88.0297 246.755 84.663C248.102 81.2963 249.684 78.7377 251.502 76.987C253.388 75.169 255.643 73.7213 258.269 72.644C262.175 71.028 266.619 70.22 271.601 70.22C284.125 70.22 290.387 72.2737 290.387 76.381C290.387 80.825 289.95 84.461 289.074 87.289C288.199 90.117 287.021 91.531 285.539 91.531C284.933 91.531 283.789 91.329 282.105 90.925C280.489 90.4537 278.941 90.218 277.459 90.218C273.554 90.218 271.601 91.5647 271.601 94.258C271.601 94.9313 271.77 95.672 272.106 96.48H285.539C287.357 96.48 288.266 99.4427 288.266 105.368C288.266 107.994 287.862 110.384 287.054 112.539C286.314 114.626 285.304 115.67 284.024 115.67H272.106ZM316.202 149.909C308.661 149.909 303.375 147.956 300.345 144.051C297.383 140.146 295.901 133.345 295.901 123.649V96.177C295.901 94.8303 297.888 93.551 301.86 92.339C305.833 91.0597 310.008 90.42 314.384 90.42C320.242 90.42 323.171 91.935 323.171 94.965V120.619C323.171 125.736 323.373 129.473 323.777 131.83C324.181 134.119 325.191 135.264 326.807 135.264C328.962 135.264 330.039 134.355 330.039 132.537V96.177C330.039 94.763 332.127 93.45 336.301 92.238C340.476 91.026 345.021 90.42 349.936 90.42C354.852 90.42 357.309 91.733 357.309 94.359V146.374C357.309 147.317 355.188 147.99 350.946 148.394C346.704 148.798 342.53 149 338.422 149C334.315 149 332.228 148.461 332.16 147.384L331.15 140.819H330.342C329.736 143.243 328.524 145.229 326.706 146.778C325.764 147.586 324.35 148.327 322.464 149C320.646 149.606 318.559 149.909 316.202 149.909ZM384.653 149.909C377.112 149.909 371.826 147.956 368.796 144.051C365.834 140.146 364.352 133.345 364.352 123.649V96.177C364.352 94.8303 366.339 93.551 370.311 92.339C374.284 91.0597 378.459 90.42 382.835 90.42C388.693 90.42 391.622 91.935 391.622 94.965V120.619C391.622 125.736 391.824 129.473 392.228 131.83C392.632 134.119 393.642 135.264 395.258 135.264C397.413 135.264 398.49 134.355 398.49 132.537V96.177C398.49 94.763 400.578 93.45 404.752 92.238C408.927 91.026 413.472 90.42 418.387 90.42C423.303 90.42 425.76 91.733 425.76 94.359V146.374C425.76 147.317 423.639 147.99 419.397 148.394C415.155 148.798 410.981 149 406.873 149C402.766 149 400.679 148.461 400.611 147.384L399.601 140.819H398.793C398.187 143.243 396.975 145.229 395.157 146.778C394.215 147.586 392.801 148.327 390.915 149C389.097 149.606 387.01 149.909 384.653 149.909ZM475.931 129.81H435.026C434.285 129.81 433.645 129.204 433.107 127.992C432.568 126.713 432.299 124.928 432.299 122.639C432.299 120.282 433.039 117.926 434.521 115.569C436.002 113.145 437.45 111.933 438.864 111.933H479.466C481.216 111.933 482.092 114.121 482.092 118.498C482.092 120.72 481.385 123.178 479.971 125.871C478.557 128.497 477.21 129.81 475.931 129.81ZM515.9 146.576C515.9 147.317 514.014 147.923 510.244 148.394C506.473 148.798 502.534 149 498.427 149C494.319 149 491.66 148.832 490.448 148.495C489.236 148.091 488.63 147.451 488.63 146.576V76.684C488.63 75.2027 490.515 73.755 494.286 72.341C498.124 70.927 502.231 70.22 506.608 70.22C512.802 70.22 515.9 71.7687 515.9 74.866V112.64H517.213C520.445 97.2207 522.835 89.511 524.384 89.511C528.289 89.511 533.002 90.42 538.524 92.238C544.045 94.056 546.806 96.076 546.806 98.298C546.806 99.914 545.459 103.011 542.766 107.59C540.072 112.169 537.278 115.906 534.383 118.801C544.011 130.315 548.826 137.149 548.826 139.304C548.826 141.324 545.762 143.782 539.635 146.677C533.507 149.572 529.198 151.02 526.707 151.02C525.495 151.02 524.215 149.572 522.869 146.677C521.522 143.714 520.074 139.304 518.526 133.446L515.9 136.577V146.576ZM573.141 149.909C565.599 149.909 560.314 147.956 557.284 144.051C554.321 140.146 552.84 133.345 552.84 123.649V96.177C552.84 94.8303 554.826 93.551 558.799 92.339C562.771 91.0597 566.946 90.42 571.323 90.42C577.181 90.42 580.11 91.935 580.11 94.965V120.619C580.11 125.736 580.312 129.473 580.716 131.83C581.12 134.119 582.13 135.264 583.746 135.264C585.9 135.264 586.978 134.355 586.978 132.537V96.177C586.978 94.763 589.065 93.45 593.24 92.238C597.414 91.026 601.959 90.42 606.875 90.42C611.79 90.42 614.248 91.733 614.248 94.359V146.374C614.248 147.317 612.127 147.99 607.885 148.394C603.643 148.798 599.468 149 595.361 149C591.253 149 589.166 148.461 589.099 147.384L588.089 140.819H587.281C586.675 143.243 585.463 145.229 583.645 146.778C582.702 147.586 581.288 148.327 579.403 149C577.585 149.606 575.497 149.909 573.141 149.909Z" fill="white"/>
<path d="M114.438 146.576L112.723 145.547C112.708 145.572 112.694 145.598 112.68 145.623L114.438 146.576ZM87.8751 146.576L85.9092 146.943C85.9117 146.957 85.9144 146.97 85.9172 146.984L87.8751 146.576ZM84.4411 128.194L86.4071 127.827C86.2303 126.88 85.4041 126.194 84.4411 126.194V128.194ZM83.0271 128.194V126.194C82.0562 126.194 81.2255 126.891 81.0574 127.848L83.0271 128.194ZM79.7951 146.576L77.8254 146.23C77.8196 146.262 77.8147 146.295 77.8106 146.328L79.7951 146.576ZM55.6561 148.495L54.9134 150.352C54.9614 150.371 55.0102 150.389 55.0596 150.404L55.6561 148.495ZM53.5351 146.576L51.6827 147.33C51.6942 147.358 51.7064 147.386 51.7192 147.414L53.5351 146.576ZM42.0211 93.046L42.6772 94.9353C42.6822 94.9336 42.6872 94.9318 42.6922 94.9301L42.0211 93.046ZM65.1501 95.066L63.1544 95.1962C63.1569 95.235 63.1606 95.2737 63.1654 95.3123L65.1501 95.066ZM68.5841 122.74L66.5994 122.986C66.7237 123.988 67.5748 124.74 68.5841 124.74V122.74ZM69.7961 122.74V124.74C70.8586 124.74 71.7356 123.909 71.7932 122.848L69.7961 122.74ZM71.0081 100.419L73.0052 100.527C73.0057 100.518 73.0062 100.508 73.0065 100.499L71.0081 100.419ZM94.0361 95.369L93.1134 97.1434C93.1413 97.1579 93.1695 97.1718 93.198 97.1849L94.0361 95.369ZM96.7631 98.399L98.7611 98.3078C98.7608 98.3012 98.7604 98.2946 98.7601 98.2881L96.7631 98.399ZM97.8741 122.74L95.8762 122.831C95.925 123.899 96.805 124.74 97.8741 124.74V122.74ZM98.9851 122.74V124.74C99.9912 124.74 100.841 123.993 100.969 122.995L98.9851 122.74ZM102.318 96.783L104.302 97.0377L104.303 97.0311L102.318 96.783ZM109.085 92.44L109.654 94.3573C109.661 94.3554 109.667 94.3535 109.673 94.3516L109.085 92.44ZM128.376 91.834L127.482 93.6228C127.492 93.6281 127.503 93.6332 127.513 93.6383L128.376 91.834ZM123.831 121.73L121.96 121.023L121.958 121.03L123.831 121.73ZM112.68 145.623C112.766 145.463 112.786 145.582 112.275 145.809C111.8 146.02 111.063 146.237 110 146.424C107.881 146.798 104.802 147 100.702 147V151C104.885 151 108.235 150.798 110.695 150.364C111.922 150.147 113.011 149.859 113.9 149.464C114.752 149.085 115.672 148.497 116.197 147.529L112.68 145.623ZM100.702 147C96.6305 147 93.6571 146.798 91.7058 146.429C90.7199 146.242 90.1192 146.036 89.7966 145.866C89.4436 145.681 89.7392 145.718 89.8331 146.168L85.9172 146.984C86.1794 148.242 87.1357 148.986 87.9358 149.407C88.7663 149.843 89.811 150.142 90.963 150.359C93.2874 150.798 96.5591 151 100.702 151V147ZM89.8411 146.209L86.4071 127.827L82.4752 128.561L85.9092 146.943L89.8411 146.209ZM84.4411 126.194H83.0271V130.194H84.4411V126.194ZM81.0574 127.848L77.8254 146.23L81.7649 146.922L84.9969 128.54L81.0574 127.848ZM77.8106 146.328C77.8639 145.902 78.0933 145.676 78.1396 145.636C78.1712 145.608 78.1067 145.671 77.8376 145.778C77.3013 145.991 76.373 146.218 74.9532 146.413C72.1461 146.798 67.888 147 62.1201 147V151C67.9337 151 72.412 150.798 75.4966 150.375C77.0226 150.166 78.329 149.888 79.3161 149.495C79.8087 149.299 80.328 149.034 80.7658 148.653C81.2182 148.259 81.6759 147.654 81.7797 146.824L77.8106 146.328ZM62.1201 147C58.8447 147 56.9934 146.818 56.2527 146.586L55.0596 150.404C56.4735 150.846 58.9316 151 62.1201 151V147ZM56.3989 146.638C55.7978 146.398 55.5128 146.088 55.3511 145.738L51.7192 147.414C52.3655 148.814 53.4945 149.784 54.9134 150.352L56.3989 146.638ZM55.3876 145.822C49.1268 130.439 44.4356 118.711 41.311 110.631C39.7479 106.589 38.5825 103.474 37.81 101.277C37.423 100.176 37.1417 99.3258 36.9596 98.7139C36.8682 98.4067 36.8081 98.1807 36.7726 98.0249C36.7274 97.8262 36.7491 97.8555 36.7491 97.995H32.7491C32.7491 98.3365 32.8198 98.6817 32.8724 98.9128C32.9348 99.1867 33.0215 99.5044 33.1258 99.8548C33.335 100.558 33.6408 101.478 34.0365 102.604C34.8295 104.859 36.0124 108.019 37.5803 112.074C40.7177 120.187 45.4195 131.941 51.6827 147.33L55.3876 145.822ZM36.7491 97.995C36.7491 98.2398 36.5959 97.9454 37.6924 97.1992C38.6897 96.5205 40.315 95.7555 42.6772 94.9353L41.3651 91.1567C38.8793 92.0198 36.8686 92.9214 35.4419 93.8923C34.1144 94.7958 32.7491 96.1342 32.7491 97.995H36.7491ZM42.6922 94.9301C47.4252 93.2443 51.9112 92.42 56.1611 92.42V88.42C51.3884 88.42 46.4477 89.3463 41.3501 91.1619L42.6922 94.9301ZM56.1611 92.42C58.9358 92.42 60.7543 92.8006 61.8331 93.3582C62.7734 93.8442 63.1036 94.4175 63.1544 95.1962L67.1459 94.9358C66.9947 92.6172 65.7257 90.8674 63.6697 89.8048C61.7521 88.8137 59.1772 88.42 56.1611 88.42V92.42ZM63.1654 95.3123L66.5994 122.986L70.5689 122.494L67.1349 94.8197L63.1654 95.3123ZM68.5841 124.74H69.7961V120.74H68.5841V124.74ZM71.7932 122.848L73.0052 100.527L69.0111 100.311L67.7991 122.632L71.7932 122.848ZM73.0065 100.499C73.0112 100.382 73.0626 100.069 73.6529 99.5598C74.2622 99.0341 75.2914 98.4443 76.8696 97.8446L75.4487 94.1054C73.6603 94.785 72.1476 95.5756 71.0399 96.5312C69.9131 97.5033 69.0724 98.7722 69.0097 100.339L73.0065 100.499ZM76.8696 97.8446C80.0205 96.6472 83.1806 96.056 86.3601 96.056V92.056C82.6717 92.056 79.0311 92.7441 75.4487 94.1054L76.8696 97.8446ZM86.3601 96.056C89.6937 96.056 91.8616 96.4925 93.1134 97.1434L94.9588 93.5946C92.844 92.4948 89.8946 92.056 86.3601 92.056V96.056ZM93.198 97.1849C94.7027 97.8794 94.7607 98.4101 94.7662 98.5099L98.7601 98.2881C98.6309 95.9639 96.8709 94.4746 94.8743 93.5531L93.198 97.1849ZM94.7652 98.4902L95.8762 122.831L99.8721 122.649L98.7611 98.3078L94.7652 98.4902ZM97.8741 124.74H98.9851V120.74H97.8741V124.74ZM100.969 122.995L104.302 97.0377L100.334 96.5283L97.0014 122.485L100.969 122.995ZM104.303 97.0311C104.294 97.1033 104.298 96.7743 105.242 96.1684C106.14 95.5919 107.576 94.9743 109.654 94.3573L108.516 90.5227C106.285 91.185 104.439 91.9309 103.081 92.8021C101.77 93.6439 100.545 94.8467 100.334 96.5349L104.303 97.0311ZM109.673 94.3516C113.927 93.0426 117.56 92.42 120.599 92.42V88.42C117.04 88.42 112.996 89.1441 108.497 90.5284L109.673 94.3516ZM120.599 92.42C123.746 92.42 125.987 92.8757 127.482 93.6228L129.271 90.0451C126.994 88.907 124.051 88.42 120.599 88.42V92.42ZM127.513 93.6383C130.433 95.0347 131.022 96.2789 131.022 97.086H135.022C135.022 93.8531 132.514 91.5959 129.239 90.0297L127.513 93.6383ZM131.022 97.086C131.022 96.8616 131.063 96.6878 131.063 96.6873C131.073 96.642 131.081 96.6103 131.084 96.6027C131.088 96.585 131.089 96.5842 131.08 96.6114C131.064 96.6615 131.035 96.7485 130.989 96.8811C130.898 97.1425 130.759 97.5323 130.568 98.0558C130.188 99.1003 129.616 100.647 128.85 102.7C127.32 106.803 125.024 112.91 121.96 121.023L125.702 122.436C128.766 114.322 131.065 108.209 132.598 104.097C133.365 102.042 133.941 100.484 134.327 99.424C134.519 98.8954 134.667 98.4835 134.768 98.1935C134.818 98.0505 134.86 97.9245 134.892 97.8242C134.907 97.7761 134.926 97.7158 134.943 97.6542C134.951 97.6246 134.964 97.5748 134.977 97.5154C134.98 97.5008 135.022 97.3167 135.022 97.086H131.022ZM121.958 121.03C118.928 129.143 116.631 135.268 115.067 139.405C114.285 141.474 113.687 143.042 113.273 144.112C113.066 144.648 112.907 145.053 112.796 145.331C112.739 145.471 112.698 145.57 112.671 145.634C112.619 145.757 112.65 145.668 112.723 145.547L116.153 147.605C116.251 147.442 116.331 147.249 116.35 147.205C116.393 147.103 116.446 146.974 116.507 146.824C116.629 146.521 116.795 146.096 117.004 145.555C117.424 144.471 118.025 142.891 118.809 140.819C120.376 136.674 122.675 130.544 125.705 122.43L121.958 121.03ZM141.849 145.566L140.548 147.085C140.557 147.092 140.566 147.1 140.575 147.107L141.849 145.566ZM138.112 140.213L136.274 141.001C136.28 141.015 136.287 141.03 136.293 141.045L138.112 140.213ZM138.819 123.649L137.148 122.551C137.141 122.562 137.133 122.573 137.126 122.585L138.819 123.649ZM151.949 115.064L151.443 113.129C151.433 113.132 151.422 113.135 151.412 113.138L151.949 115.064ZM169.725 113.347V115.347C170.83 115.347 171.725 114.452 171.725 113.347H169.725ZM166.897 107.489L167.935 105.779C167.925 105.773 167.915 105.767 167.905 105.761L166.897 107.489ZM157.201 108.095L156.505 106.22C156.499 106.222 156.493 106.225 156.487 106.227L157.201 108.095ZM151.444 110.822L152.428 112.563C152.447 112.553 152.466 112.542 152.484 112.53L151.444 110.822ZM143.364 107.388L141.684 108.473C141.688 108.478 141.691 108.484 141.695 108.489L143.364 107.388ZM143.97 95.167L142.983 93.4276L142.983 93.4276L143.97 95.167ZM154.474 91.329L154.966 93.2676C154.973 93.2659 154.98 93.2642 154.986 93.2624L154.474 91.329ZM178.916 90.622L178.451 92.5672C178.468 92.571 178.484 92.5747 178.5 92.5782L178.916 90.622ZM186.592 93.147L185.674 94.9234C185.682 94.9276 185.69 94.9318 185.698 94.9359L186.592 93.147ZM191.642 97.187L190.081 98.4364C190.091 98.4488 190.101 98.4612 190.111 98.4734L191.642 97.187ZM194.773 101.732L192.985 102.626C192.996 102.65 193.008 102.673 193.021 102.696L194.773 101.732ZM196.389 106.984L194.413 107.293C194.417 107.314 194.42 107.335 194.424 107.356L196.389 106.984ZM191.642 148.394L191.867 150.381C191.878 150.38 191.889 150.379 191.899 150.377L191.642 148.394ZM174.068 148.697L173.676 150.658C173.684 150.66 173.692 150.661 173.7 150.663L174.068 148.697ZM172.25 147.99L173.85 146.79L173.85 146.79L172.25 147.99ZM171.745 146.576L169.765 146.854C169.77 146.892 169.777 146.93 169.784 146.968L171.745 146.576ZM170.937 140.819L172.918 140.541C172.779 139.554 171.935 138.819 170.937 138.819V140.819ZM170.129 140.819V138.819C169.231 138.819 168.443 139.418 168.202 140.284L170.129 140.819ZM169.826 121.326H171.826C171.826 120.221 170.931 119.326 169.826 119.326V121.326ZM165.584 123.548L163.967 122.372L163.967 122.372L165.584 123.548ZM169.018 134.658L170.32 136.177C170.325 136.172 170.33 136.168 170.335 136.163L169.018 134.658ZM156.292 147.909C150.468 147.909 146.159 146.534 143.124 144.025L140.575 147.107C144.543 150.388 149.862 151.909 156.292 151.909V147.909ZM143.151 144.047C142.026 143.083 140.932 141.571 139.931 139.381L136.293 141.045C137.447 143.568 138.845 145.625 140.548 147.085L143.151 144.047ZM139.951 139.425C139.069 137.368 138.597 134.886 138.597 131.931H134.597C134.597 135.305 135.136 138.344 136.274 141.001L139.951 139.425ZM138.597 131.931C138.597 129.09 139.258 126.709 140.513 124.713L137.126 122.585C135.418 125.302 134.597 128.443 134.597 131.931H138.597ZM140.491 124.747C141.894 122.612 143.533 121.021 145.395 119.915L143.353 116.475C140.906 117.928 138.842 119.972 137.148 122.551L140.491 124.747ZM145.395 119.915C147.372 118.741 149.729 117.76 152.487 116.99L151.412 113.138C148.379 113.984 145.686 115.09 143.353 116.475L145.395 119.915ZM152.455 116.999C156.643 115.904 161.284 115.347 166.392 115.347V111.347C160.996 111.347 156.009 111.935 151.443 113.129L152.455 116.999ZM166.392 115.347H169.725V111.347H166.392V115.347ZM171.725 113.347C171.725 110.09 170.573 107.381 167.935 105.779L165.859 109.199C166.992 109.886 167.725 111.082 167.725 113.347H171.725ZM167.905 105.761C166.634 105.02 164.955 104.782 163.16 104.782V108.782C164.733 108.782 165.545 109.016 165.89 109.217L167.905 105.761ZM163.16 104.782C161.212 104.782 158.975 105.303 156.505 106.22L157.898 109.97C160.142 109.136 161.876 108.782 163.16 108.782V104.782ZM156.487 106.227C154.121 107.131 152.085 108.09 150.404 109.114L152.484 112.53C153.901 111.668 155.703 110.809 157.916 109.963L156.487 106.227ZM150.46 109.081C149.72 109.499 149.148 109.786 148.727 109.962C148.517 110.05 148.371 110.1 148.279 110.125C148.174 110.154 148.2 110.135 148.313 110.135V114.135C149.008 114.135 149.717 113.884 150.274 113.651C150.896 113.39 151.62 113.02 152.428 112.563L150.46 109.081ZM148.313 110.135C148.522 110.135 148.297 110.22 147.552 109.505C146.881 108.862 146.042 107.815 145.034 106.287L141.695 108.489C142.774 110.126 143.803 111.452 144.783 112.392C145.687 113.259 146.893 114.135 148.313 114.135V110.135ZM145.044 106.303C143.074 103.252 142.233 100.702 142.233 98.601H138.233C138.233 101.752 139.48 105.06 141.684 108.473L145.044 106.303ZM142.233 98.601C142.233 98.8625 142.141 98.9892 142.169 98.9438C142.197 98.8983 142.292 98.7687 142.521 98.5587C142.982 98.1352 143.766 97.5825 144.958 96.9064L142.983 93.4276C141.683 94.1655 140.599 94.8921 139.814 95.6133C139.123 96.2487 138.233 97.2644 138.233 98.601H142.233ZM144.958 96.9064C147.227 95.6181 150.535 94.392 154.966 93.2676L153.983 89.3904C149.391 90.5553 145.696 91.8879 142.983 93.4276L144.958 96.9064ZM154.986 93.2624C159.414 92.0903 163.686 91.511 167.806 91.511V87.511C163.308 87.511 158.692 88.1437 153.963 89.3956L154.986 93.2624ZM167.806 91.511C172.01 91.511 175.549 91.8731 178.451 92.5672L179.382 88.6768C176.089 87.8895 172.221 87.511 167.806 87.511V91.511ZM178.5 92.5782C181.564 93.2301 183.935 94.0243 185.674 94.9234L187.511 91.3706C185.344 90.2497 182.598 89.3606 179.333 88.6658L178.5 92.5782ZM185.698 94.9359C187.472 95.8227 188.923 96.9898 190.081 98.4364L193.204 95.9376C191.668 94.0175 189.753 92.4913 187.487 91.3581L185.698 94.9359ZM190.111 98.4734C191.466 100.086 192.405 101.468 192.985 102.626L196.562 100.838C195.795 99.3025 194.647 97.6544 193.174 95.9006L190.111 98.4734ZM193.021 102.696C193.613 103.773 194.099 105.279 194.413 107.293L198.365 106.675C198.007 104.379 197.415 102.384 196.526 100.768L193.021 102.696ZM194.424 107.356C194.865 109.684 195.096 112.615 195.096 116.175H199.096C199.096 112.463 198.857 109.266 198.355 106.612L194.424 107.356ZM195.096 116.175V146.576H199.096V116.175H195.096ZM195.096 146.576C195.096 145.848 195.56 145.503 195.565 145.499C195.585 145.485 195.473 145.564 195.1 145.689C194.378 145.929 193.169 146.179 191.385 146.411L191.899 150.377C193.752 150.137 195.269 149.849 196.365 149.483C196.901 149.305 197.472 149.065 197.946 148.713C198.406 148.373 199.096 147.674 199.096 146.576H195.096ZM191.417 146.407C187.923 146.802 184.429 147 180.936 147V151C184.581 151 188.224 150.794 191.867 150.381L191.417 146.407ZM180.936 147C177.395 147 175.298 146.893 174.437 146.731L173.7 150.663C174.993 150.905 177.475 151 180.936 151V147ZM174.461 146.736C174.012 146.646 173.733 146.564 173.581 146.505C173.507 146.476 173.502 146.467 173.538 146.49C173.566 146.507 173.705 146.597 173.85 146.79L170.65 149.19C171.102 149.792 171.751 150.085 172.131 150.233C172.586 150.409 173.115 150.546 173.676 150.658L174.461 146.736ZM173.85 146.79C173.913 146.874 173.902 146.891 173.856 146.762C173.814 146.644 173.761 146.458 173.707 146.184L169.784 146.968C169.929 147.692 170.164 148.541 170.65 149.19L173.85 146.79ZM173.726 146.298L172.918 140.541L168.957 141.097L169.765 146.854L173.726 146.298ZM170.937 138.819H170.129V142.819H170.937V138.819ZM168.202 140.284C167.471 142.917 166.154 144.753 164.31 145.965C162.429 147.2 159.812 147.909 156.292 147.909V151.909C160.315 151.909 163.774 151.103 166.506 149.308C169.273 147.49 171.104 144.781 172.056 141.354L168.202 140.284ZM171.826 133.143V121.326H167.826V133.143H171.826ZM169.826 119.326C167.402 119.326 165.4 120.401 163.967 122.372L167.202 124.724C167.923 123.732 168.75 123.326 169.826 123.326V119.326ZM163.967 122.372C162.633 124.205 161.968 126.303 161.968 128.598H165.968C165.968 127.122 166.381 125.853 167.202 124.724L163.967 122.372ZM161.968 128.598C161.968 130.909 162.221 132.921 162.905 134.425C163.258 135.202 163.764 135.928 164.49 136.46C165.238 137.009 166.102 137.264 166.998 137.264V133.264C166.885 133.264 166.865 133.241 166.855 133.235C166.824 133.211 166.699 133.104 166.547 132.77C166.22 132.052 165.968 130.731 165.968 128.598H161.968ZM166.998 137.264C168.157 137.264 169.362 136.998 170.32 136.177L167.717 133.139C167.716 133.14 167.709 133.146 167.691 133.156C167.673 133.165 167.639 133.181 167.585 133.197C167.474 133.23 167.287 133.264 166.998 133.264V137.264ZM170.335 136.163C171.157 135.444 171.826 134.432 171.826 133.143H167.826C167.826 133.109 167.831 133.074 167.839 133.041C167.848 133.009 167.857 132.99 167.86 132.985C167.863 132.978 167.832 133.038 167.701 133.153L170.335 136.163ZM226.09 148.394L226.299 150.383C226.309 150.382 226.319 150.381 226.329 150.38L226.09 148.394ZM206.294 148.495L205.628 150.381C205.671 150.396 205.715 150.41 205.758 150.422L206.294 148.495ZM210.233 94.258L210.935 96.1307C210.941 96.1284 210.947 96.1261 210.953 96.1238L210.233 94.258ZM228.615 72.24L227.664 73.9994C227.682 74.0095 227.701 74.0193 227.72 74.0288L228.615 72.24ZM229.948 96.783V146.576H233.948V96.783H229.948ZM229.948 146.576C229.948 146.201 230.079 145.902 230.21 145.711C230.329 145.54 230.439 145.465 230.446 145.46C230.447 145.46 230.304 145.548 229.89 145.676C229.091 145.924 227.771 146.177 225.85 146.408L226.329 150.38C228.314 150.14 229.923 149.854 231.076 149.496C231.639 149.321 232.228 149.09 232.717 148.753C233.169 148.441 233.948 147.74 233.948 146.576H229.948ZM225.88 146.405C222.116 146.801 218.214 147 214.172 147V151C218.345 151 222.387 150.795 226.299 150.383L225.88 146.405ZM214.172 147C212.174 147 210.554 146.958 209.3 146.878C208.01 146.795 207.224 146.678 206.829 146.568L205.758 150.422C206.575 150.649 207.709 150.784 209.044 150.87C210.416 150.958 212.129 151 214.172 151V147ZM206.959 146.609C206.777 146.545 206.657 146.485 206.581 146.439C206.507 146.394 206.488 146.369 206.496 146.379C206.508 146.391 206.534 146.427 206.555 146.482C206.564 146.507 206.57 146.53 206.573 146.548C206.577 146.566 206.577 146.576 206.577 146.576H202.577C202.577 147.495 202.894 148.351 203.515 149.046C204.099 149.699 204.862 150.111 205.628 150.381L206.959 146.609ZM206.577 146.576V98.601H202.577V146.576H206.577ZM206.577 98.601C206.577 98.7808 206.46 98.5655 207.209 97.9905C207.923 97.4421 209.125 96.8093 210.935 96.1307L209.53 92.3853C207.569 93.1207 205.944 93.9188 204.773 94.8179C203.636 95.6906 202.577 96.9399 202.577 98.601H206.577ZM210.953 96.1238C214.54 94.7394 218.468 94.036 222.757 94.036V90.036C218.023 90.036 213.602 90.814 209.513 92.3921L210.953 96.1238ZM222.757 94.036C225.713 94.036 227.626 94.4286 228.732 94.9997C229.256 95.2702 229.537 95.5491 229.693 95.7907C229.843 96.0229 229.948 96.3288 229.948 96.783H233.948C233.948 95.6549 233.67 94.5762 233.054 93.6217C232.444 92.6765 231.576 91.9664 230.568 91.4458C228.61 90.4346 225.928 90.036 222.757 90.036V94.036ZM218.212 72.22C222.495 72.22 225.585 72.8757 227.664 73.9994L229.566 70.4806C226.662 68.9109 222.817 68.22 218.212 68.22V72.22ZM227.72 74.0288C228.659 74.4982 229.305 75.1275 229.735 75.9212C230.178 76.7357 230.453 77.8351 230.453 79.31H234.453C234.453 77.3509 234.088 75.5549 233.251 74.0128C232.402 72.4498 231.129 71.2611 229.509 70.4511L227.72 74.0288ZM230.453 79.31C230.453 81.7257 229.567 83.3326 227.836 84.4451C225.954 85.655 222.876 86.4 218.313 86.4V90.4C223.176 90.4 227.168 89.63 229.999 87.8099C232.982 85.8924 234.453 82.9543 234.453 79.31H230.453ZM218.313 86.4C213.749 86.4 210.671 85.655 208.789 84.4451C207.059 83.3326 206.173 81.7257 206.173 79.31H202.173C202.173 82.9543 203.644 85.8924 206.626 87.8099C209.458 89.63 213.449 90.4 218.313 90.4V86.4ZM206.173 79.31C206.173 76.888 207.055 75.2811 208.769 74.1713C210.633 72.9645 213.684 72.22 218.212 72.22V68.22C213.38 68.22 209.411 68.9905 206.595 70.8137C203.63 72.7339 202.173 75.672 202.173 79.31H206.173ZM272.106 115.67V113.67C271.002 113.67 270.106 114.565 270.106 115.67H272.106ZM266.551 148.394L266.768 150.382C266.78 150.381 266.792 150.38 266.804 150.378L266.551 148.394ZM244.836 115.67H246.836C246.836 114.565 245.941 113.67 244.836 113.67V115.67ZM238.17 99.712L236.317 98.9592C236.313 98.9695 236.309 98.9797 236.305 98.99L238.17 99.712ZM244.836 96.48V98.48C245.941 98.48 246.836 97.5846 246.836 96.48H244.836ZM246.755 84.663L244.898 83.9202C244.894 83.931 244.89 83.9417 244.886 83.9526L246.755 84.663ZM251.502 76.987L252.89 78.4276L252.891 78.4267L251.502 76.987ZM258.269 72.644L259.028 74.4943L259.034 74.492L258.269 72.644ZM289.074 87.289L290.985 87.8804L290.985 87.8804L289.074 87.289ZM282.105 90.925L281.545 92.845C281.576 92.854 281.607 92.8623 281.638 92.8698L282.105 90.925ZM272.106 96.48L270.26 97.2492C270.571 97.9945 271.299 98.48 272.106 98.48V96.48ZM287.054 112.539L285.182 111.837C285.177 111.848 285.173 111.859 285.169 111.87L287.054 112.539ZM270.106 115.67V146.576H274.106V115.67H270.106ZM270.106 146.576C270.106 146.227 270.222 145.942 270.346 145.752C270.459 145.58 270.568 145.5 270.583 145.489C270.598 145.478 270.478 145.56 270.095 145.685C269.354 145.928 268.117 146.179 266.299 146.41L266.804 150.378C268.689 150.138 270.229 149.85 271.34 149.487C271.882 149.309 272.457 149.071 272.935 148.724C273.394 148.39 274.106 147.691 274.106 146.576H270.106ZM266.334 146.406C262.727 146.799 258.259 147 252.916 147V151C258.346 151 262.969 150.797 266.768 150.382L266.334 146.406ZM252.916 147C250.274 147 248.491 146.796 247.431 146.478C246.9 146.319 246.708 146.176 246.679 146.15C246.676 146.147 246.723 146.189 246.768 146.284C246.816 146.385 246.836 146.49 246.836 146.576H242.836C242.836 147.619 243.302 148.492 244.003 149.123C244.647 149.703 245.466 150.065 246.282 150.31C247.915 150.8 250.172 151 252.916 151V147ZM246.836 146.576V115.67H242.836V146.576H246.836ZM244.836 113.67H239.685V117.67H244.836V113.67ZM239.685 113.67C239.878 113.67 240.001 113.783 239.986 113.766C239.919 113.691 239.743 113.429 239.557 112.803C239.187 111.556 238.958 109.492 238.958 106.479H234.958C234.958 109.593 235.184 112.125 235.723 113.941C235.992 114.847 236.383 115.735 236.998 116.425C237.665 117.174 238.583 117.67 239.685 117.67V113.67ZM238.958 106.479C238.958 104.281 239.324 102.273 240.035 100.434L236.305 98.99C235.401 101.326 234.958 103.829 234.958 106.479H238.958ZM240.023 100.465C240.404 99.5272 240.77 98.9971 241.052 98.7238C241.295 98.4887 241.428 98.48 241.503 98.48V94.48C238.85 94.48 237.257 96.6461 236.317 98.9592L240.023 100.465ZM241.503 98.48H244.836V94.48H241.503V98.48ZM246.836 96.48C246.836 92.1525 247.45 88.4639 248.625 85.3734L244.886 83.9526C243.501 87.5954 242.836 91.7848 242.836 96.48H246.836ZM248.612 85.4058C249.896 82.1961 251.345 79.9153 252.89 78.4276L250.115 75.5464C248.024 77.5601 246.308 80.3966 244.898 83.9202L248.612 85.4058ZM252.891 78.4267C254.579 76.7983 256.616 75.4838 259.028 74.4943L257.51 70.7937C254.67 71.9588 252.196 73.5397 250.114 75.5473L252.891 78.4267ZM259.034 74.492C262.658 72.9926 266.835 72.22 271.601 72.22V68.22C266.402 68.22 261.692 69.0634 257.505 70.796L259.034 74.492ZM271.601 72.22C277.806 72.22 282.245 72.735 285.067 73.6607C287.956 74.6079 288.387 75.6748 288.387 76.381H292.387C292.387 72.9798 289.688 70.9663 286.314 69.8598C282.874 68.7318 277.92 68.22 271.601 68.22V72.22ZM288.387 76.381C288.387 80.7144 287.958 84.1314 287.164 86.6976L290.985 87.8804C291.941 84.7906 292.387 80.9356 292.387 76.381H288.387ZM287.164 86.6976C286.762 87.9946 286.346 88.7718 285.998 89.1901C285.688 89.5618 285.545 89.531 285.539 89.531V93.531C287.014 93.531 288.202 92.7932 289.07 91.7509C289.9 90.7552 290.511 89.4114 290.985 87.8804L287.164 86.6976ZM285.539 89.531C285.206 89.531 284.287 89.3917 282.572 88.9802L281.638 92.8698C283.29 93.2663 284.66 93.531 285.539 93.531V89.531ZM282.665 89.005C280.892 88.4877 279.154 88.218 277.459 88.218V92.218C278.727 92.218 280.087 92.4196 281.545 92.845L282.665 89.005ZM277.459 88.218C275.339 88.218 273.394 88.5724 271.93 89.5816C270.333 90.6833 269.601 92.3572 269.601 94.258H273.601C273.601 93.4654 273.846 93.1193 274.201 92.8744C274.691 92.5369 275.675 92.218 277.459 92.218V88.218ZM269.601 94.258C269.601 95.2617 269.851 96.2672 270.26 97.2492L273.952 95.7108C273.688 95.0768 273.601 94.601 273.601 94.258H269.601ZM272.106 98.48H285.539V94.48H272.106V98.48ZM285.539 98.48C285.024 98.48 285.268 97.9704 285.672 99.2886C286.037 100.478 286.266 102.458 286.266 105.368H290.266C290.266 102.353 290.041 99.8888 289.497 98.1154C288.992 96.4709 287.873 94.48 285.539 94.48V98.48ZM286.266 105.368C286.266 107.788 285.894 109.936 285.182 111.837L288.927 113.241C289.83 110.833 290.266 108.2 290.266 105.368H286.266ZM285.169 111.87C284.849 112.772 284.533 113.26 284.304 113.496C284.12 113.687 284.047 113.67 284.024 113.67V117.67C286.676 117.67 288.145 115.446 288.939 113.208L285.169 111.87ZM284.024 113.67H272.106V117.67H284.024V113.67ZM300.345 144.051L298.752 145.26C298.756 145.266 298.761 145.271 298.765 145.277L300.345 144.051ZM301.86 92.339L302.444 94.2519C302.454 94.2489 302.463 94.2459 302.473 94.2427L301.86 92.339ZM323.777 131.83L321.806 132.168L321.808 132.178L323.777 131.83ZM336.301 92.238L336.859 94.1587L336.859 94.1587L336.301 92.238ZM350.946 148.394L351.136 150.385L351.136 150.385L350.946 148.394ZM332.16 147.384L334.156 147.259C334.153 147.199 334.146 147.139 334.137 147.08L332.16 147.384ZM331.15 140.819L333.127 140.515C332.977 139.539 332.137 138.819 331.15 138.819V140.819ZM330.342 140.819V138.819C329.424 138.819 328.625 139.444 328.402 140.334L330.342 140.819ZM326.706 146.778L325.409 145.256L325.405 145.259L326.706 146.778ZM322.464 149L323.097 150.897C323.11 150.893 323.124 150.888 323.137 150.883L322.464 149ZM316.202 147.909C308.946 147.909 304.411 146.029 301.925 142.825L298.765 145.277C302.339 149.884 308.375 151.909 316.202 151.909V147.909ZM301.939 142.842C299.396 139.49 297.901 133.268 297.901 123.649H293.901C293.901 133.422 295.369 140.801 298.752 145.26L301.939 142.842ZM297.901 123.649V96.177H293.901V123.649H297.901ZM297.901 96.177C297.901 96.5712 297.624 96.4365 298.474 95.8889C299.238 95.3971 300.522 94.8382 302.444 94.2519L301.277 90.426C299.226 91.0517 297.531 91.7386 296.308 92.5261C295.172 93.2578 293.901 94.4361 293.901 96.177H297.901ZM302.473 94.2427C306.238 93.0302 310.205 92.42 314.384 92.42V88.42C309.81 88.42 305.427 89.0891 301.247 90.4353L302.473 94.2427ZM314.384 92.42C317.206 92.42 319.017 92.7957 320.056 93.3327C320.545 93.5861 320.801 93.8436 320.941 94.06C321.074 94.267 321.171 94.5439 321.171 94.965H325.171C325.171 93.8711 324.902 92.8223 324.303 91.8932C323.71 90.9733 322.868 90.2839 321.893 89.7798C320.002 88.8018 317.421 88.42 314.384 88.42V92.42ZM321.171 94.965V120.619H325.171V94.965H321.171ZM321.171 120.619C321.171 125.752 321.371 129.633 321.806 132.168L325.748 131.492C325.375 129.314 325.171 125.721 325.171 120.619H321.171ZM321.808 132.178C322.043 133.509 322.494 134.772 323.338 135.729C324.247 136.759 325.463 137.264 326.807 137.264V133.264C326.535 133.264 326.438 133.197 326.337 133.082C326.171 132.894 325.916 132.44 325.747 131.482L321.808 132.178ZM326.807 137.264C328.118 137.264 329.473 136.995 330.521 136.111C331.634 135.172 332.039 133.852 332.039 132.537H328.039C328.039 132.798 328 132.937 327.977 132.995C327.959 133.041 327.948 133.048 327.941 133.054C327.912 133.079 327.651 133.264 326.807 133.264V137.264ZM332.039 132.537V96.177H328.039V132.537H332.039ZM332.039 96.177C332.039 96.5479 331.775 96.3877 332.67 95.8247C333.48 95.3152 334.836 94.7458 336.859 94.1587L335.744 90.3173C333.591 90.9421 331.817 91.6353 330.54 92.4388C329.348 93.1888 328.039 94.3921 328.039 96.177H332.039ZM336.859 94.1587C340.83 93.0056 345.185 92.42 349.936 92.42V88.42C344.856 88.42 340.121 89.0463 335.744 90.3173L336.859 94.1587ZM349.936 92.42C352.281 92.42 353.729 92.7443 354.524 93.1688C354.891 93.3651 355.064 93.5535 355.152 93.6944C355.236 93.829 355.309 94.0264 355.309 94.359H359.309C359.309 93.3786 359.076 92.4271 358.545 91.577C358.019 90.7331 357.27 90.1009 356.408 89.6407C354.745 88.7522 352.507 88.42 349.936 88.42V92.42ZM355.309 94.359V146.374H359.309V94.359H355.309ZM355.309 146.374C355.309 145.755 355.686 145.45 355.699 145.44C355.71 145.431 355.677 145.458 355.57 145.508C355.466 145.556 355.317 145.615 355.113 145.68C354.26 145.951 352.84 146.205 350.757 146.403L351.136 150.385C353.295 150.179 355.056 149.895 356.324 149.492C356.947 149.294 357.594 149.025 358.124 148.621C358.668 148.207 359.309 147.464 359.309 146.374H355.309ZM350.757 146.403C346.575 146.801 342.464 147 338.422 147V151C342.595 151 346.833 150.795 351.136 150.385L350.757 146.403ZM338.422 147C336.414 147 335.07 146.864 334.276 146.659C333.873 146.555 333.762 146.47 333.789 146.491C333.863 146.546 334.128 146.803 334.156 147.259L330.164 147.509C330.226 148.503 330.777 149.232 331.389 149.691C331.956 150.116 332.636 150.367 333.276 150.533C334.57 150.866 336.323 151 338.422 151V147ZM334.137 147.08L333.127 140.515L329.173 141.123L330.183 147.688L334.137 147.08ZM331.15 138.819H330.342V142.819H331.15V138.819ZM328.402 140.334C327.892 142.373 326.895 143.99 325.409 145.256L328.003 148.3C330.154 146.469 331.58 144.113 332.282 141.304L328.402 140.334ZM325.405 145.259C324.726 145.841 323.57 146.481 321.792 147.117L323.137 150.883C325.129 150.172 326.801 149.331 328.008 148.297L325.405 145.259ZM321.832 147.103C320.258 147.627 318.391 147.909 316.202 147.909V151.909C318.726 151.909 321.034 151.585 323.097 150.897L321.832 147.103ZM368.796 144.051L367.203 145.26C367.207 145.266 367.212 145.271 367.216 145.277L368.796 144.051ZM370.311 92.339L370.895 94.2519C370.905 94.2489 370.915 94.2459 370.924 94.2427L370.311 92.339ZM392.228 131.83L390.257 132.168L390.259 132.178L392.228 131.83ZM404.752 92.238L405.31 94.1587L405.31 94.1587L404.752 92.238ZM419.397 148.394L419.587 150.385L419.587 150.385L419.397 148.394ZM400.611 147.384L402.607 147.259C402.604 147.199 402.597 147.139 402.588 147.08L400.611 147.384ZM399.601 140.819L401.578 140.515C401.428 139.539 400.589 138.819 399.601 138.819V140.819ZM398.793 140.819V138.819C397.876 138.819 397.076 139.444 396.853 140.334L398.793 140.819ZM395.157 146.778L393.86 145.256L393.856 145.259L395.157 146.778ZM390.915 149L391.548 150.897C391.561 150.893 391.575 150.888 391.588 150.883L390.915 149ZM384.653 147.909C377.398 147.909 372.862 146.029 370.377 142.825L367.216 145.277C370.791 149.884 376.826 151.909 384.653 151.909V147.909ZM370.39 142.842C367.847 139.49 366.352 133.268 366.352 123.649H362.352C362.352 133.422 363.82 140.801 367.203 145.26L370.39 142.842ZM366.352 123.649V96.177H362.352V123.649H366.352ZM366.352 96.177C366.352 96.5712 366.075 96.4365 366.925 95.8889C367.689 95.3971 368.973 94.8382 370.895 94.2519L369.728 90.426C367.677 91.0517 365.982 91.7386 364.759 92.5261C363.623 93.2578 362.352 94.4361 362.352 96.177H366.352ZM370.924 94.2427C374.69 93.0302 378.657 92.42 382.835 92.42V88.42C378.261 88.42 373.879 89.0891 369.698 90.4353L370.924 94.2427ZM382.835 92.42C385.657 92.42 387.469 92.7957 388.507 93.3327C388.997 93.5861 389.253 93.8436 389.392 94.06C389.526 94.267 389.622 94.5439 389.622 94.965H393.622C393.622 93.8711 393.353 92.8223 392.754 91.8932C392.162 90.9733 391.319 90.2839 390.344 89.7798C388.454 88.8018 385.872 88.42 382.835 88.42V92.42ZM389.622 94.965V120.619H393.622V94.965H389.622ZM389.622 120.619C389.622 125.752 389.823 129.633 390.257 132.168L394.2 131.492C393.826 129.314 393.622 125.721 393.622 120.619H389.622ZM390.259 132.178C390.494 133.509 390.945 134.772 391.789 135.729C392.698 136.759 393.915 137.264 395.258 137.264V133.264C394.986 133.264 394.889 133.197 394.789 133.082C394.623 132.894 394.367 132.44 394.198 131.482L390.259 132.178ZM395.258 137.264C396.569 137.264 397.925 136.995 398.972 136.111C400.085 135.172 400.49 133.852 400.49 132.537H396.49C396.49 132.798 396.451 132.937 396.428 132.995C396.41 133.041 396.399 133.048 396.393 133.054C396.363 133.079 396.103 133.264 395.258 133.264V137.264ZM400.49 132.537V96.177H396.49V132.537H400.49ZM400.49 96.177C400.49 96.5479 400.226 96.3877 401.121 95.8247C401.931 95.3152 403.288 94.7458 405.31 94.1587L404.195 90.3173C402.043 90.9421 400.268 91.6353 398.991 92.4388C397.799 93.1888 396.49 94.3921 396.49 96.177H400.49ZM405.31 94.1587C409.282 93.0056 413.637 92.42 418.387 92.42V88.42C413.308 88.42 408.573 89.0463 404.195 90.3173L405.31 94.1587ZM418.387 92.42C420.732 92.42 422.18 92.7443 422.975 93.1688C423.342 93.3651 423.515 93.5535 423.603 93.6944C423.687 93.829 423.76 94.0264 423.76 94.359H427.76C427.76 93.3786 427.527 92.4271 426.996 91.577C426.47 90.7331 425.721 90.1009 424.86 89.6407C423.196 88.7522 420.958 88.42 418.387 88.42V92.42ZM423.76 94.359V146.374H427.76V94.359H423.76ZM423.76 146.374C423.76 145.755 424.137 145.45 424.151 145.44C424.162 145.431 424.128 145.458 424.021 145.508C423.917 145.556 423.769 145.615 423.564 145.68C422.711 145.951 421.291 146.205 419.208 146.403L419.587 150.385C421.746 150.179 423.507 149.895 424.775 149.492C425.398 149.294 426.045 149.025 426.575 148.621C427.119 148.207 427.76 147.464 427.76 146.374H423.76ZM419.208 146.403C415.026 146.801 410.915 147 406.873 147V151C411.046 151 415.284 150.795 419.587 150.385L419.208 146.403ZM406.873 147C404.866 147 403.521 146.864 402.727 146.659C402.324 146.555 402.213 146.47 402.241 146.491C402.314 146.546 402.579 146.803 402.607 147.259L398.615 147.509C398.677 148.503 399.229 149.232 399.841 149.691C400.407 150.116 401.087 150.367 401.728 150.533C403.021 150.866 404.774 151 406.873 151V147ZM402.588 147.08L401.578 140.515L397.625 141.123L398.635 147.688L402.588 147.08ZM399.601 138.819H398.793V142.819H399.601V138.819ZM396.853 140.334C396.343 142.373 395.346 143.99 393.86 145.256L396.454 148.3C398.605 146.469 400.032 144.113 400.734 141.304L396.853 140.334ZM393.856 145.259C393.177 145.841 392.021 146.481 390.243 147.117L391.588 150.883C393.58 150.172 395.252 149.331 396.459 148.297L393.856 145.259ZM390.283 147.103C388.71 147.627 386.843 147.909 384.653 147.909V151.909C387.178 151.909 389.485 151.585 391.548 150.897L390.283 147.103ZM433.107 127.992L431.263 128.768C431.268 128.78 431.274 128.792 431.279 128.804L433.107 127.992ZM434.521 115.569L436.214 116.633C436.218 116.626 436.223 116.619 436.227 116.612L434.521 115.569ZM479.971 125.871L481.732 126.819C481.735 126.813 481.738 126.807 481.741 126.801L479.971 125.871ZM475.931 127.81H435.026V131.81H475.931V127.81ZM435.026 127.81C435.122 127.81 435.217 127.832 435.293 127.865C435.364 127.896 435.386 127.923 435.366 127.904C435.344 127.883 435.288 127.823 435.208 127.7C435.128 127.577 435.035 127.407 434.934 127.18L431.279 128.804C431.872 130.138 433 131.81 435.026 131.81V127.81ZM434.95 127.216C434.56 126.291 434.299 124.813 434.299 122.639H430.299C430.299 125.044 430.575 127.134 431.263 128.768L434.95 127.216ZM434.299 122.639C434.299 120.723 434.896 118.73 436.214 116.633L432.827 114.505C431.182 117.122 430.299 119.842 430.299 122.639H434.299ZM436.227 116.612C436.906 115.501 437.506 114.79 438.001 114.376C438.487 113.969 438.763 113.933 438.864 113.933V109.933C437.55 109.933 436.396 110.503 435.433 111.308C434.481 112.106 433.617 113.213 432.814 114.526L436.227 116.612ZM438.864 113.933H479.466V109.933H438.864V113.933ZM479.466 113.933C479.473 113.933 479.449 113.933 479.408 113.919C479.367 113.904 479.341 113.886 479.334 113.88C479.329 113.875 479.438 113.967 479.578 114.317C479.872 115.051 480.092 116.384 480.092 118.498H484.092C484.092 116.235 483.874 114.285 483.292 112.831C482.994 112.087 482.556 111.358 481.895 110.807C481.198 110.226 480.359 109.933 479.466 109.933V113.933ZM480.092 118.498C480.092 120.299 479.516 122.434 478.2 124.941L481.741 126.801C483.253 123.921 484.092 121.141 484.092 118.498H480.092ZM478.21 124.923C477.55 126.149 476.972 126.936 476.504 127.393C476.03 127.855 475.847 127.81 475.931 127.81V131.81C477.293 131.81 478.424 131.108 479.296 130.257C480.174 129.401 480.978 128.219 481.732 126.819L478.21 124.923ZM510.244 148.394L510.457 150.383C510.468 150.381 510.48 150.38 510.492 150.379L510.244 148.394ZM490.448 148.495L489.815 150.392C489.847 150.403 489.88 150.413 489.912 150.422L490.448 148.495ZM494.286 72.341L493.594 70.4643L493.583 70.4683L494.286 72.341ZM515.9 112.64H513.9C513.9 113.745 514.795 114.64 515.9 114.64V112.64ZM517.213 112.64V114.64C518.159 114.64 518.976 113.977 519.17 113.05L517.213 112.64ZM538.524 92.238L539.149 90.3383L539.149 90.3383L538.524 92.238ZM542.766 107.59L544.49 108.604L544.49 108.604L542.766 107.59ZM534.383 118.801L532.969 117.387C532.236 118.119 532.184 119.289 532.848 120.084L534.383 118.801ZM539.635 146.677L538.78 144.869L538.78 144.869L539.635 146.677ZM522.869 146.677L521.048 147.505C521.05 147.51 521.053 147.515 521.055 147.52L522.869 146.677ZM518.526 133.446L520.459 132.935C520.268 132.213 519.691 131.657 518.962 131.494C518.233 131.331 517.473 131.588 516.993 132.161L518.526 133.446ZM515.9 136.577L514.367 135.292C514.065 135.652 513.9 136.107 513.9 136.577H515.9ZM513.9 146.576C513.9 146.218 514.02 145.928 514.147 145.738C514.262 145.566 514.371 145.488 514.384 145.479C514.394 145.471 514.267 145.556 513.874 145.682C513.113 145.926 511.848 146.178 509.996 146.409L510.492 150.379C512.41 150.139 513.973 149.852 515.098 149.49C515.647 149.313 516.227 149.078 516.709 148.734C517.165 148.408 517.9 147.707 517.9 146.576H513.9ZM510.031 146.405C506.336 146.801 502.469 147 498.427 147V151C502.599 151 506.61 150.795 510.457 150.383L510.031 146.405ZM498.427 147C496.395 147 494.75 146.958 493.478 146.878C492.168 146.795 491.376 146.677 490.983 146.568L489.912 150.422C490.731 150.649 491.875 150.784 493.225 150.87C494.613 150.958 496.351 151 498.427 151V147ZM491.08 146.598C490.877 146.53 490.738 146.465 490.648 146.413C490.559 146.362 490.531 146.332 490.536 146.337C490.544 146.345 490.575 146.382 490.6 146.446C490.626 146.509 490.63 146.559 490.63 146.576H486.63C486.63 147.529 486.98 148.399 487.632 149.088C488.24 149.729 489.028 150.13 489.815 150.392L491.08 146.598ZM490.63 146.576V76.684H486.63V146.576H490.63ZM490.63 76.684C490.63 76.8638 490.513 76.6485 491.262 76.0735C491.976 75.5251 493.178 74.8923 494.988 74.2137L493.583 70.4683C491.622 71.2037 489.997 72.0018 488.826 72.9009C487.689 73.7736 486.63 75.0229 486.63 76.684H490.63ZM494.977 74.2177C498.579 72.8908 502.45 72.22 506.608 72.22V68.22C502.012 68.22 497.669 68.9632 493.594 70.4643L494.977 74.2177ZM506.608 72.22C509.603 72.22 511.552 72.605 512.682 73.1704C513.219 73.4389 513.502 73.7135 513.655 73.9428C513.799 74.1595 513.9 74.4416 513.9 74.866H517.9C517.9 73.7417 517.613 72.6687 516.983 71.724C516.362 70.7918 515.483 70.0984 514.471 69.5926C512.505 68.6093 509.807 68.22 506.608 68.22V72.22ZM513.9 74.866V112.64H517.9V74.866H513.9ZM515.9 114.64H517.213V110.64H515.9V114.64ZM519.17 113.05C520.783 105.356 522.173 99.648 523.34 95.8855C523.927 93.9911 524.432 92.6757 524.845 91.8665C525.056 91.4539 525.194 91.2717 525.241 91.2206C525.329 91.1235 525.037 91.511 524.384 91.511V87.511C523.343 87.511 522.637 88.1394 522.286 88.5242C521.893 88.955 521.565 89.4955 521.283 90.0466C520.712 91.1649 520.127 92.7406 519.519 94.701C518.295 98.6481 516.874 104.505 515.255 112.23L519.17 113.05ZM524.384 91.511C528 91.511 532.49 92.3569 537.898 94.1377L539.149 90.3383C533.515 88.4831 528.578 87.511 524.384 87.511V91.511ZM537.898 94.1377C540.578 95.0202 542.421 95.9011 543.554 96.7306C544.706 97.5732 544.806 98.1114 544.806 98.298H548.806C548.806 96.2626 547.525 94.6798 545.916 93.5024C544.289 92.3119 541.99 91.2738 539.149 90.3383L537.898 94.1377ZM544.806 98.298C544.806 98.6674 544.619 99.5235 543.962 101.036C543.333 102.48 542.368 104.322 541.042 106.576L544.49 108.604C545.857 106.279 546.911 104.283 547.63 102.63C548.319 101.045 548.806 99.5446 548.806 98.298H544.806ZM541.042 106.576C538.41 111.049 535.715 114.641 532.969 117.387L535.797 120.215C538.841 117.171 541.734 113.288 544.49 108.604L541.042 106.576ZM532.848 120.084C537.65 125.826 541.22 130.364 543.58 133.714C544.762 135.392 545.613 136.734 546.16 137.755C546.433 138.265 546.613 138.662 546.72 138.957C546.835 139.276 546.826 139.368 546.826 139.304H550.826C550.826 138.701 550.666 138.108 550.481 137.596C550.287 137.06 550.014 136.479 549.686 135.866C549.029 134.64 548.075 133.149 546.85 131.41C544.396 127.926 540.744 123.29 535.917 117.518L532.848 120.084ZM546.826 139.304C546.826 139.289 546.833 139.433 546.601 139.772C546.366 140.114 545.951 140.561 545.277 141.102C543.924 142.187 541.789 143.447 538.78 144.869L540.489 148.485C543.608 147.011 546.069 145.595 547.779 144.222C549.378 142.94 550.826 141.299 550.826 139.304H546.826ZM538.78 144.869C535.757 146.297 533.224 147.348 531.17 148.038C529.081 148.74 527.626 149.02 526.707 149.02V153.02C528.279 153.02 530.224 152.576 532.444 151.83C534.699 151.073 537.385 149.952 540.489 148.485L538.78 144.869ZM526.707 149.02C526.94 149.02 526.819 149.155 526.337 148.61C525.881 148.094 525.32 147.205 524.682 145.834L521.055 147.52C521.764 149.045 522.516 150.327 523.34 151.259C524.137 152.161 525.261 153.02 526.707 153.02V149.02ZM524.689 145.849C523.413 143.041 521.999 138.76 520.459 132.935L516.592 133.957C518.15 139.848 519.631 144.387 521.048 147.505L524.689 145.849ZM516.993 132.161L514.367 135.292L517.432 137.862L520.058 134.731L516.993 132.161ZM513.9 136.577V146.576H517.9V136.577H513.9ZM557.284 144.051L555.69 145.26C555.695 145.266 555.699 145.271 555.704 145.277L557.284 144.051ZM558.799 92.339L559.382 94.2519C559.392 94.2489 559.402 94.2459 559.412 94.2427L558.799 92.339ZM580.716 131.83L578.744 132.168L578.746 132.178L580.716 131.83ZM593.24 92.238L593.797 94.1587L593.797 94.1587L593.24 92.238ZM607.885 148.394L608.074 150.385L608.074 150.385L607.885 148.394ZM589.099 147.384L591.095 147.259C591.091 147.199 591.085 147.139 591.075 147.08L589.099 147.384ZM588.089 140.819L590.065 140.515C589.915 139.539 589.076 138.819 588.089 138.819V140.819ZM587.281 140.819V138.819C586.363 138.819 585.563 139.444 585.34 140.334L587.281 140.819ZM583.645 146.778L582.348 145.256L582.343 145.259L583.645 146.778ZM579.403 149L580.035 150.897C580.049 150.893 580.062 150.888 580.075 150.883L579.403 149ZM573.141 147.909C565.885 147.909 561.35 146.029 558.864 142.825L555.704 145.277C559.278 149.884 565.314 151.909 573.141 151.909V147.909ZM558.877 142.842C556.334 139.49 554.84 133.268 554.84 123.649H550.84C550.84 133.422 552.308 140.801 555.69 145.26L558.877 142.842ZM554.84 123.649V96.177H550.84V123.649H554.84ZM554.84 96.177C554.84 96.5712 554.562 96.4365 555.412 95.8889C556.176 95.3971 557.461 94.8382 559.382 94.2519L558.215 90.426C556.164 91.0517 554.469 91.7386 553.246 92.5261C552.11 93.2578 550.84 94.4361 550.84 96.177H554.84ZM559.412 94.2427C563.177 93.0302 567.144 92.42 571.323 92.42V88.42C566.748 88.42 562.366 89.0891 558.186 90.4353L559.412 94.2427ZM571.323 92.42C574.144 92.42 575.956 92.7957 576.994 93.3327C577.484 93.5861 577.74 93.8436 577.879 94.06C578.013 94.267 578.11 94.5439 578.11 94.965H582.11C582.11 93.8711 581.84 92.8223 581.242 91.8932C580.649 90.9733 579.806 90.2839 578.832 89.7798C576.941 88.8018 574.359 88.42 571.323 88.42V92.42ZM578.11 94.965V120.619H582.11V94.965H578.11ZM578.11 120.619C578.11 125.752 578.31 129.633 578.744 132.168L582.687 131.492C582.313 129.314 582.11 125.721 582.11 120.619H578.11ZM578.746 132.178C578.981 133.509 579.433 134.772 580.277 135.729C581.186 136.759 582.402 137.264 583.746 137.264V133.264C583.473 133.264 583.377 133.197 583.276 133.082C583.11 132.894 582.854 132.44 582.685 131.482L578.746 132.178ZM583.746 137.264C585.056 137.264 586.412 136.995 587.459 136.111C588.572 135.172 588.978 133.852 588.978 132.537H584.978C584.978 132.798 584.939 132.937 584.916 132.995C584.897 133.041 584.886 133.048 584.88 133.054C584.85 133.079 584.59 133.264 583.746 133.264V137.264ZM588.978 132.537V96.177H584.978V132.537H588.978ZM588.978 96.177C588.978 96.5479 588.713 96.3877 589.608 95.8247C590.418 95.3152 591.775 94.7458 593.797 94.1587L592.682 90.3173C590.53 90.9421 588.756 91.6353 587.478 92.4388C586.286 93.1888 584.978 94.3921 584.978 96.177H588.978ZM593.797 94.1587C597.769 93.0056 602.124 92.42 606.875 92.42V88.42C601.795 88.42 597.06 89.0463 592.682 90.3173L593.797 94.1587ZM606.875 92.42C609.22 92.42 610.667 92.7443 611.462 93.1688C611.829 93.3651 612.002 93.5535 612.09 93.6944C612.174 93.829 612.248 94.0264 612.248 94.359H616.248C616.248 93.3786 616.014 92.4271 615.484 91.577C614.957 90.7331 614.208 90.1009 613.347 89.6407C611.684 88.7522 609.445 88.42 606.875 88.42V92.42ZM612.248 94.359V146.374H616.248V94.359H612.248ZM612.248 146.374C612.248 145.755 612.624 145.45 612.638 145.44C612.649 145.431 612.616 145.458 612.509 145.508C612.405 145.556 612.256 145.615 612.052 145.68C611.198 145.951 609.778 146.205 607.695 146.403L608.074 150.385C610.233 150.179 611.994 149.895 613.262 149.492C613.885 149.294 614.532 149.025 615.062 148.621C615.606 148.207 616.248 147.464 616.248 146.374H612.248ZM607.695 146.403C603.514 146.801 599.402 147 595.361 147V151C599.534 151 603.772 150.795 608.074 150.385L607.695 146.403ZM595.361 147C593.353 147 592.008 146.864 591.214 146.659C590.812 146.555 590.7 146.47 590.728 146.491C590.801 146.546 591.066 146.803 591.095 147.259L587.103 147.509C587.165 148.503 587.716 149.232 588.328 149.691C588.894 150.116 589.574 150.367 590.215 150.533C591.509 150.866 593.261 151 595.361 151V147ZM591.075 147.08L590.065 140.515L586.112 141.123L587.122 147.688L591.075 147.08ZM588.089 138.819H587.281V142.819H588.089V138.819ZM585.34 140.334C584.831 142.373 583.833 143.99 582.348 145.256L584.942 148.3C587.092 146.469 588.519 144.113 589.221 141.304L585.34 140.334ZM582.343 145.259C581.665 145.841 580.509 146.481 578.73 147.117L580.075 150.883C582.067 150.172 583.739 149.331 584.946 148.297L582.343 145.259ZM578.77 147.103C577.197 147.627 575.33 147.909 573.141 147.909V151.909C575.665 151.909 577.973 151.585 580.035 150.897L578.77 147.103Z" fill="#D84C55"/>
</svg>
